<svg width="181" height="200" viewBox="0 0 181 200" fill="none" xmlns="http://www.w3.org/2000/svg">
<path d="M126 112V172.5C126 185.203 115.703 195.5 103 195.5H27C14.2975 195.5 4 185.203 4 172.5V27.5C4 14.7975 14.2975 4.5 27 4.5H103C115.703 4.5 126 14.7975 126 27.5V83.5" stroke="black" stroke-width="8"/>
<path d="M74.5251 95.5251C73.1583 96.892 73.1583 99.108 74.5251 100.475L96.799 122.749C98.1658 124.116 100.382 124.116 101.749 122.749C103.116 121.382 103.116 119.166 101.749 117.799L81.9497 98L101.749 78.201C103.116 76.8342 103.116 74.6181 101.749 73.2513C100.382 71.8844 98.1658 71.8844 96.799 73.2513L74.5251 95.5251ZM181 94.5L77 94.5V101.5L181 101.5V94.5Z" fill="black"/>
<line x1="8" y1="153" x2="129" y2="153" stroke="black" stroke-width="8"/>
<line x1="4" y1="29" x2="125" y2="29" stroke="black" stroke-width="8"/>
<circle cx="64.5" cy="173.5" r="10.5" stroke="black" stroke-width="4"/>
<line x1="32" y1="15" x2="58" y2="15" stroke="black" stroke-width="4"/>
<line x1="65" y1="15" x2="77" y2="15" stroke="black" stroke-width="4"/>
</svg>
